<svg xmlns="http://www.w3.org/2000/svg" viewBox="0 0 160 160">
  <defs>
    <linearGradient id="rg" x1="0%" y1="0%" x2="100%" y2="100%">
      <stop offset="0%" stop-color="#f1e6ff"/>
      <stop offset="100%" stop-color="#7c3aed"/>
    </linearGradient>
    <linearGradient id="pg" x1="0%" y1="0%" x2="100%" y2="100%">
      <stop offset="0%" stop-color="#241a3d"/>
      <stop offset="100%" stop-color="#0b0713"/>
    </linearGradient>
    <filter id="glowTight" x="-80%" y="-80%" width="260%" height="260%">
      <feGaussianBlur stdDeviation="1.8"/>
    </filter>
    <filter id="glowWide" x="-100%" y="-100%" width="300%" height="300%">
      <feGaussianBlur stdDeviation="5.5"/>
    </filter>
  </defs>
  <rect x="0" y="0" width="160" height="160" rx="22" fill="#0b0713"/>

  <polygon points="18,28 38,20 38,156 18,164" fill="#130c22" stroke="#6d28d9" stroke-width="1.4"/>
  <line x1="20.5" y1="30" x2="20.5" y2="160" stroke="#c084fc" stroke-width="2.2" filter="url(#glowWide)" opacity="0.9"/>
  <line x1="20.5" y1="30" x2="20.5" y2="160" stroke="#f1e6ff" stroke-width="1"/>

  <polygon points="18,28 38,20 120,10 98,18" fill="#241a3d" stroke="#6d28d9" stroke-width="1.2"/>
  <polygon points="38,20 120,10 146,150 38,156" fill="url(#pg)" stroke="#6d28d9" stroke-width="1.6"/>

  <path d="M 74 40 L 62 30 L 68 20 L 56 10" fill="none" stroke="#a855f7" stroke-width="3.5" stroke-linecap="round" stroke-linejoin="round" opacity="0.7" filter="url(#glowWide)"/>
  <path d="M 74 40 L 62 30 L 68 20 L 56 10" fill="none" stroke="#e0c9ff" stroke-width="1.1" stroke-linecap="round" stroke-linejoin="round"/>
  <path d="M 128 48 L 138 36 L 132 22" fill="none" stroke="#a855f7" stroke-width="3.5" stroke-linecap="round" stroke-linejoin="round" opacity="0.7" filter="url(#glowWide)"/>
  <path d="M 128 48 L 138 36 L 132 22" fill="none" stroke="#e0c9ff" stroke-width="1.1" stroke-linecap="round" stroke-linejoin="round"/>
  <path d="M 72 88 L 56 94 L 60 110 L 46 118" fill="none" stroke="#a855f7" stroke-width="3.5" stroke-linecap="round" stroke-linejoin="round" opacity="0.7" filter="url(#glowWide)"/>
  <path d="M 72 88 L 56 94 L 60 110 L 46 118" fill="none" stroke="#e0c9ff" stroke-width="1.1" stroke-linecap="round" stroke-linejoin="round"/>
  <path d="M 138 108 L 148 116 L 140 130" fill="none" stroke="#a855f7" stroke-width="3.5" stroke-linecap="round" stroke-linejoin="round" opacity="0.7" filter="url(#glowWide)"/>
  <path d="M 138 108 L 148 116 L 140 130" fill="none" stroke="#e0c9ff" stroke-width="1.1" stroke-linecap="round" stroke-linejoin="round"/>

  <path d="M 76 34 L 76 145 M 76 34 L 118 34 L 132 56 L 118 78 L 76 78 M 76 78 L 148 145"
        fill="none" stroke="#0b0713" stroke-width="26" stroke-linejoin="miter" stroke-linecap="square" transform="translate(3, 4)"/>
  <path d="M 76 34 L 76 145 M 76 34 L 118 34 L 132 56 L 118 78 L 76 78 M 76 78 L 148 145"
        fill="none" stroke="#a855f7" stroke-width="24" stroke-linecap="round" stroke-linejoin="round" opacity="0.85" filter="url(#glowWide)"/>
  <path d="M 76 34 L 76 145 M 76 34 L 118 34 L 132 56 L 118 78 L 76 78 M 76 78 L 148 145"
        fill="none" stroke="url(#rg)" stroke-width="17" stroke-linejoin="miter" stroke-linecap="square"/>
</svg>
